{"title":"CockTail [2012]-1CD-DVDRip","uid":7637915,"size":739714041,"categoryP":"video","categoryS":"movies","magnet":"?xt=urn:btih:03f375ed379ba5d7d5f1038f3f8bb0754616b656&amp;dn=CockTail+%5B2012%5D-1CD-DVDRip&amp;tr=udp%3A%2F%2Ftracker.openbittorrent.com%3A80&amp;tr=udp%3A%2F%2Fopen.demonii.com%3A1337&amp;tr=udp%3A%2F%2Ftracker.coppersurfer.tk%3A6969&amp;tr=udp%3A%2F%2Fexodus.desync.com%3A6969","seeders":0,"leechers":0,"uploader":"arsenal_rocks","files":3,"time":1347701282,"description":"CockTail [2012]-1CD-DVDRip\n\n &lt;a href=&quot;\nhttp://img13.imageshack.us/img13/1576/cocktail001.jpg&quot; rel=&quot;nofollow&quot; target=&quot;_NEW&quot;&gt;\nhttp://img13.imageshack.us/img13/1576/cocktail001.jpg&lt;/a&gt;\n\n &lt;a href=&quot;\nhttp://img267.imageshack.us/img267/4632/screensx.png&quot; rel=&quot;nofollow&quot; target=&quot;_NEW&quot;&gt;\nhttp://img267.imageshack.us/img267/4632/screensx.png&lt;/a&gt;\n\n &lt;a href=&quot;\nhttp://img705.imageshack.us/img705/9832/17040478.png&quot; rel=&quot;nofollow&quot; target=&quot;_NEW&quot;&gt;\nhttp://img705.imageshack.us/img705/9832/17040478.png&lt;/a&gt; &lt;a href=&quot;\nhttp://img16.imageshack.us/img16/5796/16511615.png&quot; rel=&quot;nofollow&quot; target=&quot;_NEW&quot;&gt;\nhttp://img16.imageshack.us/img16/5796/16511615.png&lt;/a&gt; &lt;a href=&quot;\nhttp://img441.imageshack.us/img441/1627/19463089.png&quot; rel=&quot;nofollow&quot; target=&quot;_NEW&quot;&gt;\nhttp://img441.imageshack.us/img441/1627/19463089.png&lt;/a&gt; &lt;a href=&quot;\nhttp://img818.imageshack.us/img818/1271/67436600.png&quot; rel=&quot;nofollow&quot; target=&quot;_NEW&quot;&gt;\nhttp://img818.imageshack.us/img818/1271/67436600.png&lt;/a&gt; &lt;a href=&quot;\nhttp://img338.imageshack.us/img338/2276/81894154.png&quot; rel=&quot;nofollow&quot; target=&quot;_NEW&quot;&gt;\nhttp://img338.imageshack.us/img338/2276/81894154.png&lt;/a&gt; &lt;a href=&quot;\nhttp://img839.imageshack.us/img839/7051/72666507.png&quot; rel=&quot;nofollow&quot; target=&quot;_NEW&quot;&gt;\nhttp://img839.imageshack.us/img839/7051/72666507.png&lt;/a&gt; &lt;a href=&quot;\nhttp://img543.imageshack.us/img543/1796/26957062.png&quot; rel=&quot;nofollow&quot; target=&quot;_NEW&quot;&gt;\nhttp://img543.imageshack.us/img543/1796/26957062.png&lt;/a&gt; &lt;a href=&quot;\nhttp://img228.imageshack.us/img228/7281/74423770.png&quot; rel=&quot;nofollow&quot; target=&quot;_NEW&quot;&gt;\nhttp://img228.imageshack.us/img228/7281/74423770.png&lt;/a&gt; &lt;a href=&quot;\nhttp://img823.imageshack.us/img823/9279/95399024.png&quot; rel=&quot;nofollow&quot; target=&quot;_NEW&quot;&gt;\nhttp://img823.imageshack.us/img823/9279/95399024.png&lt;/a&gt; &lt;a href=&quot;\nhttp://img528.imageshack.us/img528/8239/66822824.png&quot; rel=&quot;nofollow&quot; target=&quot;_NEW&quot;&gt;\nhttp://img528.imageshack.us/img528/8239/66822824.png&lt;/a&gt; &lt;a href=&quot;\nhttp://img69.imageshack.us/img69/5232/53915853.png&quot; rel=&quot;nofollow&quot; target=&quot;_NEW&quot;&gt;\nhttp://img69.imageshack.us/img69/5232/53915853.png&lt;/a&gt;\n\n\n\n\nRip Information\n\nFormat                           : Matroska\nFormat version                           : Version 2\nFile size                                      : 696 MiB\nDuration                                      : 2h 24mn\nOverall bit rate                           : 672 Kbps\nMovie name                               : CockTail [2012]]-1CD-DVDRip-\n\n\nVideo\n\nFormat                                   : AVC\nFormat/Info                              : Advanced Video Codec\nFormat profile                           : &lt;a class=&quot;__cf_email__&quot; href=&quot;/cdn-cgi/l/email-protection&quot; data-cfemail=&quot;f3bb9a949bb3bfc1ddc2&quot;&gt;[email&amp;#160;protected]&lt;/a&gt;&lt;script cf-hash='f9e31' type=&quot;text/javascript&quot;&gt;\n/* &lt;![CDATA[ */!function(){try{var t=&quot;currentScript&quot;in document?document.currentScript:function(){for(var t=document.getElementsByTagName(&quot;script&quot;),e=t.length;e--;)if(t[e].getAttribute(&quot;cf-hash&quot;))return t[e]}();if(t&amp;&amp;t.previousSibling){var e,r,n,i,c=t.previousSibling,a=c.getAttribute(&quot;data-cfemail&quot;);if(a){for(e=&quot;&quot;,r=parseInt(a.substr(0,2),16),n=2;a.length-n;n+=2)i=parseInt(a.substr(n,2),16)^r,e+=String.fromCharCode(i);e=document.createTextNode(e),c.parentNode.replaceChild(e,c)}}}catch(u){}}();/* ]]&gt; */&lt;/script&gt;\nFormat settings, CABAC                   : Yes\nFormat settings, ReFrames                : 5 frames\nMuxing mode                              : Header stripping\nCodec ID                                 : V_MPEG4/ISO/AVC\nDuration                                 : 2h 24mn\nBit rate                                 : 543 Kbps\nWidth                                    : 688 pixels\nHeight                                   : 288 pixels\nDisplay aspect ratio                     : 2.40:1\nFrame rate                               : 23.976 fps\nColor space                              : YUV\nChroma subsampling                       : 4:2:0\nBit depth                                : 8 bits\nScan type                                : Progressive\nBits/(Pixel*Frame)                       : 0.114\nStream size                              : 550 MiB (79%)\n\nWriting library                          : x264 core 125 r2200 999b753[/QUOTE]\n\n\n\nAudio\n\n\n\nFormat                                   : AC-3\nFormat/Info                              : Audio Coding 3\nMode extension                           : CM (complete main)\nFormat settings, Endianness              : Big\nMuxing mode                              : Header stripping\nCodec ID                                 : A_AC3\nDuration                                 : 2h 24mn\nBit rate mode                            : Constant\nBit rate                                 : 128 Kbps\nChannel(s)                               : 2 channels\nChannel positions                        : Front: L R\nSampling rate                            : 48.0 KHz\nBit depth                                : 16 bits\nCompression mode                         : Lossy\nStream size                              : 133 MiB (19%)\nLanguage                                 : Hindi","torrent":{"xt":"urn:btih:03f375ed379ba5d7d5f1038f3f8bb0754616b656","amp;dn":"CockTail+%5B2012%5D-1CD-DVDRip","amp;tr":["udp%3A%2F%2Ftracker.openbittorrent.com%3A80","udp%3A%2F%2Fopen.demonii.com%3A1337","udp%3A%2F%2Ftracker.coppersurfer.tk%3A6969","udp%3A%2F%2Fexodus.desync.com%3A6969"],"infoHash":"03f375ed379ba5d7d5f1038f3f8bb0754616b656","infoHashBuffer":{"type":"Buffer","data":[3,243,117,237,55,155,165,215,213,241,3,143,63,139,176,117,70,22,182,86]},"announce":[],"urlList":[]}}